<svg width="27" height="16" viewBox="0 0 27 16" fill="none" xmlns="http://www.w3.org/2000/svg">
<path d="M26.7072 8.70711C27.0977 8.31658 27.0977 7.68342 26.7072 7.29289L20.3432 0.928932C19.9527 0.538408 19.3196 0.538408 18.929 0.928932C18.5385 1.31946 18.5385 1.95262 18.929 2.34315L24.5859 8L18.929 13.6569C18.5385 14.0474 18.5385 14.6805 18.929 15.0711C19.3196 15.4616 19.9527 15.4616 20.3432 15.0711L26.7072 8.70711ZM24.9131 9H26.0001V7H24.9131V9Z" fill="#C1E3F5"/>
<path d="M15.0396 8.76562L17.0552 11.5781C17.2896 11.9062 17.1958 12.375 16.8677 12.6328C16.7271 12.7266 16.5864 12.7734 16.4458 12.7734C16.2114 12.7734 15.9771 12.6562 15.813 12.4453L13.3755 9H11.1958V12C11.1958 12.4219 10.8442 12.75 10.4458 12.75C10.0239 12.75 9.6958 12.4219 9.6958 12V3C9.6958 2.60156 10.0239 2.25 10.4458 2.25H13.8208C15.6724 2.25 17.1958 3.77344 17.1958 5.625C17.1958 7.05469 16.3052 8.27344 15.0396 8.76562ZM11.1958 3.77344V7.5H13.8208C14.8521 7.5 15.6958 6.67969 15.6958 5.64844C15.6958 4.59375 14.8521 3.77344 13.8208 3.77344H11.1958Z" fill="#2B528B"/>
<path d="M0.301127 7.29277C-0.0938876 7.67945 -0.101199 8.31257 0.284797 8.70689L6.57497 15.1326C6.96096 15.5269 7.5941 15.5331 7.98911 15.1464C8.38413 14.7598 8.39144 14.1266 8.00544 13.7323L2.41418 8.02056L8.13609 2.41938C8.5311 2.03269 8.53841 1.39957 8.15242 1.00526C7.76642 0.610941 7.13329 0.604753 6.73827 0.991434L0.301127 7.29277ZM2.09846 7.01743L1.01158 7.00681L0.988488 9.00667L2.07537 9.0173L2.09846 7.01743Z" fill="#C1E3F5"/>
</svg>
